<?xml version="1.0" encoding="utf-8"?>
<!-- Generator: Adobe Illustrator 22.1.0, SVG Export Plug-In . SVG Version: 6.00 Build 0)  -->
<svg version="1.1" id="Layer_1" xmlns="http://www.w3.org/2000/svg" xmlns:xlink="http://www.w3.org/1999/xlink" x="0px" y="0px"
	 viewBox="0 0 1426.7 231.7" style="enable-background:new 0 0 1426.7 231.7;" xml:space="preserve">
<style type="text/css">
	.st0{clip-path:url(#SVGID_2_);fill:#063E72;}
	.st1{fill:#FFFFFF;}
	.st2{fill:none;stroke:#FFFFFF;stroke-width:7;stroke-linecap:round;stroke-linejoin:round;stroke-miterlimit:10;}
</style>
<g>
	<defs>
		<rect id="SVGID_1_" width="774.7" height="231.7"/>
	</defs>
	<clipPath id="SVGID_2_">
		<use xlink:href="#SVGID_1_"  style="overflow:visible;"/>
	</clipPath>
	<path class="st0" d="M62.3,1h650.2c17.6,0,26.5,0,36,3c10.4,3.8,18.5,11.9,22.3,22.3c3,9.5,3,18.4,3,36.2v106.9c0,17.6,0,26.5-3,36
		c-3.8,10.4-11.9,18.5-22.3,22.3c-9.5,3-18.4,3-36.2,3H62.3c-17.6,0-26.5,0-36-3C15.9,224,7.8,215.8,4,205.4C1,196,1,187,1,169.2
		V62.3c0-17.6,0-26.5,3-36C7.8,15.9,15.9,7.8,26.3,4c9.5-3,18.4-3,36.2-3H62.3z"/>
</g>
<g>
	<path class="st1" d="M279.8,177.9h-15l50.9-124.3h16.3l47,124.3h-17.5l-12.9-34.2h-54.9L279.8,177.9z M298.8,131.3h45.2l-21.8-57.7
		L298.8,131.3z"/>
	<path class="st1" d="M409.5,177.9h-16.2V53.6h16.2V177.9z"/>
	<path class="st1" d="M449.3,177.9h-16.2V53.6h38.4c9.4,0,16.5,1.4,21.3,4.1c4.8,2.7,8.5,6.7,11.3,11.8c2.8,5.2,4.2,10.7,4.2,16.8
		c0,4.9-0.9,9.5-2.8,14c-1.9,4.5-4.5,8.5-7.9,12.1c-3.4,3.6-8.6,6.8-15.7,9.6c2.7,1.5,4.7,2.9,6,4.2c1.3,1.3,3,3.5,4.9,6.5
		c1.9,3,3.6,5.8,5,8.4l19.8,36.8h-18.5l-17.2-32.7c-4.2-7.9-9.6-14.8-16.3-20.7h-16.3V177.9z M449.3,112H465c6.7,0,11.7-1,15.2-3.1
		c3.4-2.1,6.2-5,8.2-9c2-3.9,3-8.1,3-12.6c0-3.9-0.8-7.4-2.4-10.5c-1.6-3.1-4-5.6-7-7.7c-3.1-2.1-8.4-3.1-15.8-3.1h-17V112z"/>
	<path class="st1" d="M529.4,149.9h16.2v0.8c0,6.9,2.4,11.7,7.3,14.4c4.9,2.7,11.3,4,19.4,4c7,0,13-2.1,17.7-6.2
		c4.8-4.1,7.2-9.5,7.2-16.3c0-5.4-2.1-9.9-6.2-13.3c-4.1-3.4-10.4-6.9-18.7-10.3l-6.5-2.6c-8.8-3.6-15.4-7.2-19.7-10.8
		c-4.4-3.5-7.6-7.5-9.7-11.8c-2.1-4.3-3.2-9.2-3.2-14.5c0-9.4,3.3-17.3,10-23.8c6.6-6.5,17-9.7,31.2-9.7c13,0,22.1,2.4,27.4,7.2
		s7.9,10.4,7.9,16.8v0.8h-16.2v-0.8c0-2-0.8-4-2.4-6c-1.6-2-4.1-3.4-7.3-4.3c-3.3-0.9-6.8-1.3-10.7-1.3c-8,0-13.8,2-17.7,6
		c-3.8,4-5.7,8.5-5.7,13.6c0,3.4,0.9,6.6,2.7,9.6c1.8,3,4.3,5.5,7.5,7.5c3.2,2,8.5,4.6,16.1,7.9l7.6,3.3
		c12.2,5.3,20.3,10.8,24.4,16.7c4.1,5.8,6.1,12.1,6.1,18.8c0,6.2-1.7,12.3-5,18.1c-3.3,5.8-7.9,10.3-13.8,13.3
		c-5.9,3-13.7,4.5-23.5,4.5c-9.3,0-17-1.1-23.3-3.3c-6.2-2.2-10.9-5.9-14.2-10.9c-3.2-5.1-4.8-10.6-4.8-16.7V149.9z"/>
	<path class="st1" d="M628.8,149.9H645v0.8c0,6.9,2.4,11.7,7.3,14.4c4.9,2.7,11.3,4,19.4,4c7,0,13-2.1,17.7-6.2
		c4.8-4.1,7.2-9.5,7.2-16.3c0-5.4-2.1-9.9-6.2-13.3c-4.1-3.4-10.4-6.9-18.7-10.3l-6.5-2.6c-8.8-3.6-15.4-7.2-19.7-10.8
		c-4.4-3.5-7.6-7.5-9.7-11.8c-2.1-4.3-3.2-9.2-3.2-14.5c0-9.4,3.3-17.3,10-23.8c6.6-6.5,17-9.7,31.2-9.7c13,0,22.1,2.4,27.4,7.2
		s7.9,10.4,7.9,16.8v0.8h-16.2v-0.8c0-2-0.8-4-2.4-6c-1.6-2-4.1-3.4-7.3-4.3c-3.3-0.9-6.8-1.3-10.7-1.3c-8,0-13.8,2-17.7,6
		c-3.8,4-5.7,8.5-5.7,13.6c0,3.4,0.9,6.6,2.7,9.6c1.8,3,4.3,5.5,7.5,7.5c3.2,2,8.5,4.6,16.1,7.9l7.6,3.3
		c12.2,5.3,20.3,10.8,24.4,16.7c4.1,5.8,6.1,12.1,6.1,18.8c0,6.2-1.7,12.3-5,18.1c-3.3,5.8-7.9,10.3-13.8,13.3
		c-5.9,3-13.7,4.5-23.5,4.5c-9.3,0-17-1.1-23.3-3.3c-6.2-2.2-10.9-5.9-14.2-10.9c-3.2-5.1-4.8-10.6-4.8-16.7V149.9z"/>
</g>
<g>
	<line class="st2" x1="79.2" y1="136.5" x2="100.4" y2="157.7"/>
	<line class="st2" x1="100.4" y1="136.5" x2="79.2" y2="157.7"/>
</g>
<g>
	<path class="st1" d="M220,115.9l17-29.5c0.6-1.1,0.6-2.4,0-3.5l-18-31.2c-0.6-1.1-1.8-1.8-3-1.8h-34l-17-29.5
		c-0.6-1.1-1.8-1.8-3-1.8h-36.1c-1.3,0-2.4,0.7-3,1.8l-17,29.5h-34c-1.3,0-2.4,0.7-3,1.8l-18,31.2c-0.6,1.1-0.6,2.4,0,3.5l17,29.5
		l-17,29.5c-0.6,1.1-0.6,2.4,0,3.5l18,31.2c0.6,1.1,1.8,1.8,3,1.8h33.9l17,29.5c0.6,1.1,1.8,1.8,3,1.8h36.1c1.3,0,2.4-0.7,3-1.8
		l17-29.5H216c1.3,0,2.4-0.7,3-1.8l18-31.2c0.6-1.1,0.6-2.4,0-3.5L220,115.9z M230,84.6l-16,27.7h-32l-16-27.7l16-27.7h32L230,84.6z
		 M127.9,143.6l-16-27.7l16-27.7h32l16,27.7l-16,27.7H127.9z M127.9,25.7h32l16,27.7l-16,27.7h-32l-16-27.7L127.9,25.7z M73.8,56.9
		h32l16,27.7l-16,27.7h-32l-16-27.7L73.8,56.9z M57.8,147.1l16-27.7h32l16,27.7l-16,27.8H73.8L57.8,147.1z M159.8,206h-32l-16-27.7
		l16-27.8h31.9l16,27.7L159.8,206z M214,174.8h-32l-16-27.7l16-27.7h32l16,27.7L214,174.8z"/>
	<path class="st1" d="M130.8,66.8c0.7,0.7,1.6,1,2.5,1s1.8-0.3,2.5-1l8.1-8.1l8.1,8.1c0.7,0.7,1.6,1,2.5,1s1.8-0.3,2.5-1
		c1.4-1.4,1.4-3.6,0-5l-8.1-8.1l8.1-8.1c1.4-1.4,1.4-3.6,0-5c-1.4-1.4-3.6-1.4-5,0l-8.1,8.1l-8.1-8.1c-1.4-1.4-3.6-1.4-5,0
		c-1.4,1.4-1.4,3.6,0,5l8.1,8.1l-8.1,8.1C129.5,63.2,129.5,65.4,130.8,66.8z"/>
	<path class="st1" d="M148.8,115.9l8.1-8.1c1.4-1.4,1.4-3.6,0-5c-1.4-1.4-3.6-1.4-5,0l-8.1,8.1l-8.1-8.1c-1.4-1.4-3.6-1.4-5,0
		c-1.4,1.4-1.4,3.6,0,5l8.1,8.1l-8.1,8.1c-1.4,1.4-1.4,3.6,0,4.9c0.7,0.7,1.6,1,2.5,1s1.8-0.3,2.5-1l8.1-8.1l8.1,8.1
		c0.7,0.7,1.6,1,2.5,1s1.8-0.3,2.5-1c1.4-1.4,1.4-3.6,0-4.9L148.8,115.9z"/>
	<path class="st1" d="M156.9,165.3c-1.4-1.4-3.6-1.4-4.9,0l-8.1,8.1l-8.1-8.1c-1.4-1.4-3.6-1.4-4.9,0c-1.4,1.4-1.4,3.6,0,4.9
		l8.1,8.1l-8.1,8.1c-1.4,1.4-1.4,3.6,0,4.9c0.7,0.7,1.6,1,2.5,1s1.8-0.3,2.5-1l8.1-8.1l8.1,8.1c0.7,0.7,1.6,1,2.5,1
		c0.9,0,1.8-0.3,2.5-1c1.4-1.4,1.4-3.6,0-4.9l-8.1-8.1l8.1-8.1C158.3,168.8,158.3,166.6,156.9,165.3z"/>
	<path class="st1" d="M211,134c-1.4-1.4-3.6-1.4-5,0l-8.1,8.1l-8.1-8.1c-1.4-1.4-3.6-1.4-5,0c-1.4,1.4-1.4,3.6,0,4.9l8.1,8.1
		l-8.1,8.1c-1.4,1.4-1.4,3.6,0,4.9c0.7,0.7,1.6,1,2.5,1s1.8-0.3,2.5-1l8.1-8.1l8.1,8.1c0.7,0.7,1.6,1,2.5,1s1.8-0.3,2.5-1
		c1.4-1.4,1.4-3.6,0-4.9l-8.1-8.1l8.1-8.1C212.4,137.6,212.4,135.4,211,134z"/>
	<path class="st1" d="M193,84.6l-8.1,8.1c-1.4,1.4-1.4,3.6,0,4.9c0.7,0.7,1.6,1,2.5,1c0.9,0,1.8-0.3,2.5-1l8.1-8.1l8.1,8.1
		c0.7,0.7,1.6,1,2.5,1s1.8-0.3,2.5-1c1.4-1.4,1.4-3.6,0-4.9l-8.1-8.1l8.1-8.1c1.4-1.4,1.4-3.6,0-4.9c-1.4-1.4-3.6-1.4-4.9,0
		l-8.1,8.1l-8.1-8.1c-1.4-1.4-3.6-1.4-4.9,0c-1.4,1.4-1.4,3.6,0,4.9L193,84.6z"/>
	<path class="st1" d="M76.8,97.7c0.7,0.7,1.6,1,2.5,1c0.9,0,1.8-0.3,2.5-1l8.1-8.1l8.1,8.1c0.7,0.7,1.6,1,2.5,1s1.8-0.3,2.5-1
		c1.4-1.4,1.4-3.6,0-4.9l-8.1-8.1l8.1-8.1c1.4-1.4,1.4-3.6,0-4.9c-1.4-1.4-3.6-1.4-4.9,0l-8.1,8.1l-8.1-8.1c-1.4-1.4-3.6-1.4-4.9,0
		c-1.4,1.4-1.4,3.6,0,4.9l8.1,8.1l-8.1,8.1C75.4,94.1,75.4,96.3,76.8,97.7z"/>
</g>
<g>
	<path d="M1003,177.9V53.6h34.4c16.7,0,28.9,2.3,36.7,6.8c7.7,4.5,13.8,11.5,18.1,20.8c4.4,9.3,6.5,20.7,6.5,34.1
		c0,12.5-2,23.4-5.9,32.6s-9.9,16.5-17.8,21.9c-8,5.4-19.8,8.1-35.4,8.1H1003z M1019.2,164.2h19.1c11.4,0,20-1.7,25.7-5
		c5.8-3.3,10.2-8.6,13.3-15.7c3.1-7.1,4.6-16.1,4.6-26.9c0-10.8-1.4-20.1-4.2-27.8s-7.1-13.5-12.8-17.2c-5.7-3.7-14.7-5.5-27-5.5
		h-18.7V164.2z"/>
	<path d="M1166.3,181.6c-15.5,0-28.2-5.7-38-17.1c-9.8-11.4-14.7-27.7-14.7-48.8c0-21.1,4.9-37.3,14.7-48.7
		c9.8-11.4,22.5-17.1,38-17.1s28.2,5.7,38.1,17.1c9.8,11.4,14.8,27.6,14.8,48.7c0,21.1-4.9,37.3-14.8,48.8
		C1194.6,175.9,1181.9,181.6,1166.3,181.6z M1166.3,169.1c11.3,0,20.2-4.9,26.5-14.6c6.4-9.7,9.5-22.7,9.5-38.8
		c0-16.1-3.2-29-9.5-38.8c-6.4-9.8-15.2-14.7-26.5-14.7c-11.3,0-20.1,4.9-26.5,14.7c-6.4,9.8-9.6,22.7-9.6,38.8
		c0,16.1,3.2,29.1,9.6,38.8C1146.2,164.3,1155.1,169.1,1166.3,169.1z"/>
	<path d="M1312.3,151.1h15v0.8c0,4.9-1.7,9.9-5.1,15c-3.4,5.1-8,8.8-13.8,11.2c-5.8,2.4-12.7,3.6-20.5,3.6
		c-15.8,0-28.7-5.5-38.8-16.5c-10-11-15.1-27.5-15.1-49.4c0-21.8,5-38.3,15-49.3c10-11.1,23-16.6,38.9-16.6c7.8,0,14.6,1.2,20.4,3.6
		c5.8,2.4,10.4,6.1,13.8,11.3c3.4,5.2,5.1,10.1,5.1,14.9v0.8h-15v-0.8c0-3-0.9-6-2.8-8.8c-1.9-2.8-4.6-4.9-8.2-6.3
		c-3.6-1.4-7.8-2.1-12.8-2.1c-12.7,0-22.2,5-28.4,15.1c-6.2,10-9.3,22.8-9.3,38.4c0,15.7,3.1,28.5,9.4,38.5c6.2,10,15.7,15,28.3,15
		c8.6,0,14.8-1.8,18.4-5.4c3.6-3.6,5.4-7.6,5.4-11.9V151.1z"/>
	<path d="M1342.2,149.9h16.2v0.8c0,6.9,2.4,11.7,7.3,14.4c4.9,2.7,11.3,4,19.4,4c7,0,13-2.1,17.7-6.2c4.8-4.1,7.2-9.5,7.2-16.3
		c0-5.4-2.1-9.9-6.2-13.3c-4.1-3.4-10.4-6.9-18.7-10.3l-6.5-2.6c-8.8-3.6-15.4-7.2-19.7-10.8c-4.4-3.5-7.6-7.5-9.7-11.8
		c-2.1-4.3-3.2-9.2-3.2-14.5c0-9.4,3.3-17.3,10-23.8c6.6-6.5,17-9.7,31.2-9.7c13,0,22.1,2.4,27.4,7.2s7.9,10.4,7.9,16.8v0.8h-16.2
		v-0.8c0-2-0.8-4-2.4-6c-1.6-2-4.1-3.4-7.3-4.3c-3.3-0.9-6.8-1.3-10.7-1.3c-8,0-13.8,2-17.7,6c-3.8,4-5.7,8.5-5.7,13.6
		c0,3.4,0.9,6.6,2.7,9.6c1.8,3,4.3,5.5,7.5,7.5c3.2,2,8.5,4.6,16.1,7.9l7.6,3.3c12.2,5.3,20.3,10.8,24.4,16.7
		c4.1,5.8,6.1,12.1,6.1,18.8c0,6.2-1.7,12.3-5,18.1c-3.3,5.8-7.9,10.3-13.8,13.3c-5.9,3-13.7,4.5-23.5,4.5c-9.3,0-17-1.1-23.3-3.3
		c-6.2-2.2-10.9-5.9-14.2-10.9c-3.2-5.1-4.8-10.6-4.8-16.7V149.9z"/>
</g>
<path d="M903.5,70.3V18.7h-75.9c-5,0-9.1,4.1-9.1,9.1v176.1c0,5,4.1,9.1,9.1,9.1h127.5c5,0,9.1-4.1,9.1-9.1V79.4h-51.6
	C907.6,79.4,903.5,75.3,903.5,70.3z M927.8,159.9c0,2.5-2,4.6-4.6,4.6h-63.8c-2.5,0-4.6-2-4.6-4.6v-3c0-2.5,2-4.6,4.6-4.6h63.8
	c2.5,0,4.6,2,4.6,4.6V159.9z M927.8,135.6c0,2.5-2,4.6-4.6,4.6h-63.8c-2.5,0-4.6-2-4.6-4.6v-3c0-2.5,2-4.6,4.6-4.6h63.8
	c2.5,0,4.6,2,4.6,4.6V135.6z M927.8,108.3v3c0,2.5-2,4.6-4.6,4.6h-63.8c-2.5,0-4.6-2-4.6-4.6v-3c0-2.5,2-4.6,4.6-4.6h63.8
	C925.7,103.7,927.8,105.8,927.8,108.3z M964.2,65v2.3h-48.6V18.7h2.3c2.4,0,4.7,0.9,6.5,2.7l37.2,37.2
	C963.3,60.3,964.2,62.6,964.2,65z"/>
</svg>
