<?xml version="1.0" encoding="utf-8"?>
<!-- Generator: Adobe Illustrator 22.1.0, SVG Export Plug-In . SVG Version: 6.00 Build 0)  -->
<svg version="1.1" id="Layer_1" xmlns="http://www.w3.org/2000/svg" xmlns:xlink="http://www.w3.org/1999/xlink" x="0px" y="0px"
	 viewBox="0 0 1426.6699219 231.7355042" style="enable-background:new 0 0 1426.6699219 231.7355042;" xml:space="preserve">
<style type="text/css">
	.st0{clip-path:url(#SVGID_2_);fill:#063E72;}
	.st1{fill:#FFFFFF;}
</style>
<g>
	<defs>
		<rect id="SVGID_1_" width="774.6953125" height="231.7355042"/>
	</defs>
	<clipPath id="SVGID_2_">
		<use xlink:href="#SVGID_1_"  style="overflow:visible;"/>
	</clipPath>
	<path class="st0" d="M62.266098,1.0000916h650.163208c17.5648804,0,26.4835205,0,35.9569702,3.0023193
		c10.3670044,3.7732849,18.5335083,11.9396973,22.3067017,22.3067932
		c3.0024414,9.4733887,3.0024414,18.3920898,3.0024414,36.2292786v106.9310303c0,17.5647888,0,26.48349-3.0024414,35.9568787
		c-3.7731934,10.3670959-11.9396973,18.5335083-22.3067017,22.3067932
		c-9.4734497,3.0023193-18.3920898,3.0023193-36.2293701,3.0023193H62.266098c-17.5648956,0-26.48349,0-35.9570007-3.0023193
		c-10.3669891-3.7732849-18.533493-11.9396973-22.3067017-22.3067932C1,195.9530029,1,187.0343018,1,169.197113V62.2660828
		c0-17.5647888,0-26.48349,3.0023956-35.9568787C7.7756042,15.9421082,15.9421082,7.7756958,26.3090973,4.0024109
		c9.4735107-3.0023193,18.3921051-3.0023193,36.2294006-3.0023193H62.266098z"/>
</g>
<path class="st1" d="M279.8047485,177.8677979h-14.9746094l50.9296875-124.28125h16.3359375l47.0058594,124.28125h-17.4570313
	l-12.8925781-34.1933594h-54.8535156L279.8047485,177.8677979z M298.7832642,131.2623291h45.1640625l-21.78125-57.7363281
	L298.7832642,131.2623291z"/>
<path class="st1" d="M409.531311,177.8677979h-16.1757813v-124.28125h16.1757813V177.8677979z"/>
<path class="st1" d="M449.250061,177.8677979h-16.1757813v-124.28125h38.4375
	c9.4492188,0,16.5488281,1.3613281,21.3007813,4.0839844c4.7509766,2.7226563,8.5146484,6.6601563,11.2910156,11.8115234
	c2.7753906,5.1523438,4.1640625,10.7441406,4.1640625,16.7763672c0,4.8583984-0.9345703,9.5166016-2.8027344,13.9736328
	c-1.8691406,4.4580078-4.4980469,8.4882813-7.8876953,12.0917969c-3.390625,3.6035156-8.6357422,6.8203125-15.7353516,9.6494141
	c2.6689453,1.4951172,4.6708984,2.9101563,6.0058594,4.2441406c1.3339844,1.3349609,2.9628906,3.4970703,4.8847656,6.4863281
	c1.921875,2.9902344,3.6035156,5.7929688,5.0449219,8.4082031l19.7792969,36.7558594h-18.4980469l-17.2167969-32.671875
	c-4.1640625-7.9003906-9.5830078-14.8144531-16.2558594-20.7402344H449.250061V177.8677979z M449.250061,112.0435791h15.7753906
	c6.6728516,0,11.7314453-1.0273438,15.1748047-3.0830078c3.4433594-2.0546875,6.1787109-5.0449219,8.2080078-8.96875
	c2.0283203-3.9238281,3.0429688-8.1279297,3.0429688-12.6123047c0-3.8964844-0.8007813-7.3798828-2.4023438-10.4501953
	c-1.6015625-3.0693359-3.9511719-5.6455078-7.046875-7.7275391c-3.0966797-2.0820313-8.3554688-3.1230469-15.7753906-3.1230469
	H449.250061V112.0435791z"/>
<path class="st1" d="M529.4082642,149.9205322h16.1757813v0.8007813c0,6.8867188,2.4287109,11.6787109,7.2871094,14.3740234
	c4.8574219,2.6962891,11.3173828,4.0439453,19.3789063,4.0439453c7.046875,0,12.9589844-2.0546875,17.7373047-6.1660156
	c4.7773438-4.1103516,7.1669922-9.5292969,7.1669922-16.2558594c0-5.4453125-2.0556641-9.8896484-6.1660156-13.3330078
	c-4.1113281-3.4433594-10.3574219-6.8730469-18.7382813-10.2900391l-6.4863281-2.6425781
	c-8.8085938-3.6298828-15.3886719-7.2197266-19.7392578-10.7705078c-4.3515625-3.5498047-7.5947266-7.4873047-9.7294922-11.8115234
	c-2.1357422-4.3242188-3.203125-9.1552734-3.203125-14.4941406c0-9.3955078,3.3232422-17.3232422,9.9697266-23.7832031
	c6.6464844-6.4589844,17.0429688-9.6894531,31.1904297-9.6894531c12.9726563,0,22.1015625,2.4023438,27.3867188,7.2070313
	s7.9277344,10.4101563,7.9277344,16.8164063v0.8007813H593.390686v-0.8007813c0-2.0283203-0.8144531-4.0302734-2.4423828-6.0058594
	c-1.6289063-1.9746094-4.0712891-3.4033203-7.3271484-4.2841797c-3.2568359-0.8808594-6.8339844-1.3212891-10.7304688-1.3212891
	c-7.9550781,0-13.8408203,1.9892578-17.6572266,5.9658203c-3.8173828,3.9775391-5.7255859,8.5019531-5.7255859,13.5732422
	c0,3.4169922,0.9072266,6.6337891,2.7226563,9.6494141c1.8144531,3.0166016,4.3105469,5.5126953,7.4873047,7.4873047
	c3.1757813,1.9755859,8.5283203,4.6181641,16.0556641,7.9277344l7.6074219,3.2832031
	c12.171875,5.2851563,20.2998047,10.8378906,24.3837891,16.65625c4.0839844,5.8193359,6.1259766,12.0917969,6.1259766,18.8183594
	c0,6.2460938-1.6552734,12.2919922-4.9648438,18.1376953c-3.3105469,5.8457031-7.9013672,10.2773438-13.7734375,13.2929688
	c-5.8730469,3.015625-13.6933594,4.5244141-23.4628906,4.5244141c-9.2890625,0-17.0439453-1.1083984-23.2626953-3.3232422
	c-6.2197266-2.2148438-10.9443359-5.8583984-14.1738281-10.9306641c-3.2304688-5.0712891-4.8447266-10.6230469-4.8447266-16.65625
	V149.9205322z"/>
<path class="st1" d="M628.7852173,149.9205322h16.1757813v0.8007813c0,6.8867188,2.4287109,11.6787109,7.2871094,14.3740234
	c4.8574219,2.6962891,11.3173828,4.0439453,19.3789063,4.0439453c7.046875,0,12.9589844-2.0546875,17.7373047-6.1660156
	c4.7773438-4.1103516,7.1669922-9.5292969,7.1669922-16.2558594c0-5.4453125-2.0556641-9.8896484-6.1660156-13.3330078
	c-4.1113281-3.4433594-10.3574219-6.8730469-18.7382813-10.2900391l-6.4863281-2.6425781
	c-8.8085938-3.6298828-15.3886719-7.2197266-19.7392578-10.7705078c-4.3515625-3.5498047-7.5947266-7.4873047-9.7294922-11.8115234
	c-2.1357422-4.3242188-3.203125-9.1552734-3.203125-14.4941406c0-9.3955078,3.3232422-17.3232422,9.9697266-23.7832031
	c6.6464844-6.4589844,17.0429688-9.6894531,31.1904297-9.6894531c12.9726563,0,22.1015625,2.4023438,27.3867188,7.2070313
	s7.9277344,10.4101563,7.9277344,16.8164063v0.8007813h-16.1757813v-0.8007813c0-2.0283203-0.8144531-4.0302734-2.4423828-6.0058594
	c-1.6289063-1.9746094-4.0712891-3.4033203-7.3271484-4.2841797c-3.2568359-0.8808594-6.8339844-1.3212891-10.7304688-1.3212891
	c-7.9550781,0-13.8408203,1.9892578-17.6572266,5.9658203c-3.8173828,3.9775391-5.7255859,8.5019531-5.7255859,13.5732422
	c0,3.4169922,0.9072266,6.6337891,2.7226563,9.6494141c1.8144531,3.0166016,4.3105469,5.5126953,7.4873047,7.4873047
	c3.1757813,1.9755859,8.5283203,4.6181641,16.0556641,7.9277344l7.6074219,3.2832031
	c12.171875,5.2851563,20.2998047,10.8378906,24.3837891,16.65625c4.0839844,5.8193359,6.1259766,12.0917969,6.1259766,18.8183594
	c0,6.2460938-1.6552734,12.2919922-4.9648438,18.1376953c-3.3105469,5.8457031-7.9013672,10.2773438-13.7734375,13.2929688
	c-5.8730469,3.015625-13.6933594,4.5244141-23.4628906,4.5244141c-9.2890625,0-17.0439453-1.1083984-23.2626953-3.3232422
	c-6.2197266-2.2148438-10.9443359-5.8583984-14.1738281-10.9306641c-3.2304688-5.0712891-4.8447266-10.6230469-4.8447266-16.65625
	V149.9205322z"/>
<path class="st1" d="M94.7629852,147.0894165l8.1086426-8.1084595c1.3666992-1.3671875,1.3666992-3.5830078,0-4.9501953
	c-1.3671875-1.3662109-3.5830078-1.3662109-4.9501953,0l-8.1083984,8.1085815l-8.1083984-8.1085815
	c-1.3671875-1.3662109-3.5830078-1.3662109-4.9501953,0c-1.3666992,1.3671875-1.3666992,3.5830078,0,4.9501953l8.1086426,8.1084595
	l-8.1086426,8.1088257c-1.3666992,1.3662109-1.3666992,3.5830078,0,4.9492188
	c0.6835938,0.6835938,1.5795898,1.0253906,2.4750977,1.0253906s1.7915039-0.3417969,2.4750977-1.0253906l8.1083984-8.1082153
	l8.1083984,8.1082153c0.6835938,0.6835938,1.5795898,1.0253906,2.4750977,1.0253906s1.7915039-0.3417969,2.4750977-1.0253906
	c1.3666992-1.3662109,1.3666992-3.5830078,0-4.9492188L94.7629852,147.0894165z"/>
<path class="st1" d="M220.0279999,115.8677979l17.0155029-29.4711914c0.625-1.0830078,0.625-2.4169922,0-3.5l-18.0258789-31.2216797
	c-0.6254883-1.0830078-1.7807617-1.75-3.03125-1.75h-34.0269775l-17.0150146-29.4711914
	c-0.6254883-1.0830078-1.7807617-1.75-3.03125-1.75h-36.0512695c-1.2504883,0-2.4057617,0.6669922-3.03125,1.75
	l-17.0155029,29.4711914H71.7876434c-1.2504883,0-2.4057617,0.6669922-3.03125,1.75L50.7305145,82.8966064
	c-0.625,1.0830078-0.625,2.4169922,0,3.5l17.0155029,29.4711914l-17.0155029,29.4716797c-0.625,1.0830078-0.625,2.4169922,0,3.5
	l18.0258789,31.2207031c0.6254883,1.0830078,1.7807617,1.75,3.03125,1.75h33.9483032l17.0150757,29.4716797
	c0.6254883,1.0830078,1.7807617,1.75,3.03125,1.75h36.0512695c1.2504883,0,2.4057617-0.6669922,3.03125-1.75l17.0155029-29.4716797
	h34.1060791c1.2504883,0,2.4057617-0.6669922,3.03125-1.75l18.0258789-31.2207031c0.625-1.0830078,0.625-2.4169922,0-3.5
	L220.0279999,115.8677979z M229.9707489,84.6466064l-16.0048828,27.7211914h-32.0064697l-16.0046997-27.7211914
	l16.0047607-27.7216797h32.0064087L229.9707489,84.6466064z M127.8852386,143.5894775l-16.0047607-27.7216797l16.0046997-27.7211914
	h32.0036621l16.0046997,27.7211914l-16.0047607,27.7216797H127.8852386z M127.88237,25.7037354h32.0102539l16.0026245,27.7181396
	l-16.0064697,27.7247314h-32.00354l-16.0062256-27.7243042L127.88237,25.7037354z M73.8081512,56.9249268h32.006958
	l16.005127,27.7216797l-16.005127,27.7211914h-32.006958L57.8032684,84.6466064L73.8081512,56.9249268z M57.8032684,147.0894775
	l16.0048828-27.7216797h32.006958l15.965332,27.652771l-16.0444336,27.7896118H73.8081512L57.8032684,147.0894775z
	 M159.8130341,206.0318604h-32.0097656l-15.9638062-27.6505127l16.0457153-27.7918701h31.9278564l16.0048828,27.7207031
	L159.8130341,206.0318604z M213.9658661,174.8101807h-32.0102539l-16.0026245-27.7176514l16.0064697-27.7247314h32.0064087
	l16.0048828,27.7216797L213.9658661,174.8101807z"/>
<path class="st1" d="M130.8291473,66.788208c0.6835938,0.6831055,1.5795898,1.0249023,2.4750977,1.0249023
	s1.7915039-0.3417969,2.4750977-1.0249023l8.1081543-8.1081543l8.1081543,8.1081543
	c0.6835938,0.6831055,1.5795898,1.0249023,2.4750977,1.0249023s1.7915039-0.3417969,2.4750977-1.0249023
	c1.3666992-1.3671875,1.3666992-3.5830078,0-4.9501953l-8.1081543-8.1081543l8.1081543-8.1081543
	c1.3666992-1.3671875,1.3666992-3.5830078,0-4.9501953c-1.3671875-1.3662109-3.5830078-1.3662109-4.9501953,0l-8.1081543,8.1081543
	l-8.1081543-8.1081543c-1.3671875-1.3662109-3.5830078-1.3662109-4.9501953,0c-1.3666992,1.3671875-1.3666992,3.5830078,0,4.9501953
	l8.1081543,8.1081543l-8.1081543,8.1081543C129.4624481,63.2052002,129.4624481,65.4210205,130.8291473,66.788208z"/>
<path class="st1" d="M148.8374481,115.8676147l8.1083984-8.1082153c1.3666992-1.3671875,1.3666992-3.5830078,0-4.9501953
	c-1.3671875-1.3662109-3.5830078-1.3662109-4.9501953,0l-8.1081543,8.1083374l-8.1081543-8.1083374
	c-1.3671875-1.3662109-3.5830078-1.3662109-4.9501953,0c-1.3666992,1.3671875-1.3666992,3.5830078,0,4.9501953l8.1083984,8.1082153
	l-8.1083984,8.1085815c-1.3666992,1.3662109-1.3666992,3.5830078,0,4.9492188
	c0.6835938,0.6835938,1.5795898,1.0253906,2.4750977,1.0253906s1.7915039-0.3417969,2.4750977-1.0253906l8.1081543-8.1079712
	l8.1081543,8.1079712c0.6835938,0.6835938,1.5795898,1.0253906,2.4750977,1.0253906s1.7915039-0.3417969,2.4750977-1.0253906
	c1.3666992-1.3662109,1.3666992-3.5830078,0-4.9492188L148.8374481,115.8676147z"/>
<path class="st1" d="M156.9453583,165.2525635c-1.3662109-1.3671875-3.5825195-1.3671875-4.949707,0l-8.1081543,8.1083374
	l-8.1081543-8.1083374c-1.3662109-1.3662109-3.5825195-1.3671875-4.949707,0
	c-1.3671875,1.3662109-1.3671875,3.5830078-0.0004883,4.9492188l8.1087036,8.1088867l-8.1087036,8.1088867
	c-1.3666992,1.3662109-1.3666992,3.5830078,0.0004883,4.9492188c0.6831055,0.6835938,1.5791016,1.0253906,2.4746094,1.0253906
	s1.7915039-0.3417969,2.4750977-1.0253906l8.1081543-8.1083374l8.1081543,8.1083374
	c0.6835938,0.6835938,1.5791016,1.0253906,2.4750977,1.0253906c0.8955078,0,1.7915039-0.3417969,2.4746094-1.0253906
	c1.3671875-1.3662109,1.3671875-3.5830078,0.0004883-4.9492188l-8.1087036-8.1088867l8.1087036-8.1088867
	C158.3125458,168.8355713,158.3125458,166.6187744,156.9453583,165.2525635z"/>
<path class="st1" d="M211.019577,134.0308838c-1.3671875-1.3671875-3.5830078-1.3671875-4.9501953,0l-8.1083984,8.1083984
	l-8.1083984-8.1083984c-1.3671875-1.3671875-3.5830078-1.3671875-4.9501953,0c-1.3666992,1.3662109-1.3666992,3.5830078,0,4.9492188
	l8.1088867,8.1088867l-8.1088867,8.1088867c-1.3666992,1.3662109-1.3666992,3.5830078,0,4.9492188
	c0.6835938,0.6835938,1.5795898,1.0253906,2.4750977,1.0253906s1.7915039-0.3417969,2.4750977-1.0253906l8.1083984-8.1083984
	l8.1083984,8.1083984c0.6835938,0.6835938,1.5795898,1.0253906,2.4750977,1.0253906s1.7915039-0.3417969,2.4750977-1.0253906
	c1.3666992-1.3662109,1.3666992-3.5830078,0-4.9492188l-8.1088867-8.1088867l8.1088867-8.1088867
	C212.3862762,137.6138916,212.3862762,135.3970947,211.019577,134.0308838z"/>
<path class="st1" d="M193.0112152,84.6463623l-8.1083374,8.1081543c-1.3671875,1.3671875-1.3671875,3.5830078-0.0004883,4.949707
	c0.6835938,0.6835938,1.5791016,1.0253906,2.4750977,1.0253906c0.8955078,0,1.7915039-0.3417969,2.4746094-1.0249023
	l8.1088867-8.1087036l8.1088867,8.1087036c0.6831055,0.6831055,1.5791016,1.0249023,2.4746094,1.0249023
	s1.7915039-0.3417969,2.4750977-1.0253906c1.3666992-1.3666992,1.3666992-3.5825195-0.0004883-4.949707l-8.1083374-8.1081543
	l8.1083374-8.1081543c1.3671875-1.3671875,1.3671875-3.5830078,0.0004883-4.949707
	c-1.3662109-1.3666992-3.5825195-1.3662109-4.949707-0.0004883l-8.1088867,8.1087036l-8.1088867-8.1087036
	c-1.3662109-1.3662109-3.5825195-1.3666992-4.949707,0.0004883c-1.3666992,1.3666992-1.3666992,3.5825195,0.0004883,4.949707
	L193.0112152,84.6463623z"/>
<path class="st1" d="M76.7544403,97.7042236c0.6835938,0.6835938,1.5791016,1.0253906,2.4750977,1.0253906
	c0.8955078,0,1.7915039-0.3417969,2.4746094-1.0249023l8.1088867-8.1087036l8.1088867,8.1087036
	c0.6831055,0.6831055,1.5791016,1.0249023,2.4746094,1.0249023s1.7915039-0.3417969,2.4750977-1.0253906
	c1.3666992-1.3666992,1.3666992-3.5825195-0.0004883-4.949707l-8.1083374-8.1081543l8.1083374-8.1081543
	c1.3671875-1.3671875,1.3671875-3.5830078,0.0004883-4.949707c-1.3662109-1.3666992-3.5825195-1.3662109-4.949707-0.0004883
	l-8.1088867,8.1087036l-8.1088867-8.1087036c-1.3662109-1.3662109-3.5825195-1.3666992-4.949707,0.0004883
	c-1.3666992,1.3666992-1.3666992,3.5825195,0.0004883,4.949707l8.1083374,8.1081543l-8.1083374,8.1081543
	C75.3877411,94.1217041,75.3877411,96.3375244,76.7544403,97.7042236z"/>
<path d="M1002.9766235,177.8681641v-124.28125h34.3534546c16.7089844,0,28.9345703,2.2695313,36.6757813,6.8066406
	c7.7402344,4.5380859,13.7861328,11.4648438,18.1376953,20.7802734c4.3505859,9.3164063,6.5263672,20.6738281,6.5263672,34.0732422
	c0,12.5458984-1.9619141,23.4228516-5.8857422,32.6318359s-9.8632813,16.5097656-17.8173828,21.9013672
	c-7.9550781,5.3925781-19.7529297,8.0878906-35.3945313,8.0878906H1002.9766235z M1019.1524048,164.1748047h19.0585327
	c11.3710938,0,19.9521484-1.6679688,25.7451172-5.0048828c5.7919922-3.3359375,10.2226563-8.5683594,13.2929688-15.6953125
	c3.0693359-7.1269531,4.6044922-16.0820313,4.6044922-26.8662109c0-10.7832031-1.4013672-20.0595703-4.2041016-27.8271484
	s-7.0742188-13.4931641-12.8125-17.1767578c-5.7392578-3.6835938-14.7480469-5.5253906-27.0263672-5.5253906h-18.6581421
	V164.1748047z"/>
<path d="M1166.3359375,181.6318359c-15.5351563,0-28.2148438-5.7119141-38.0371094-17.1367188
	c-9.8232422-11.4238281-14.734375-27.6796875-14.734375-48.7675781c0-21.0869141,4.9111328-37.3291016,14.734375-48.7275391
	c9.8222656-11.3974609,22.5019531-17.0966797,38.0371094-17.0966797S1194.5634766,55.6025391,1204.4130859,67
	c9.8496094,11.3984375,14.7744141,27.640625,14.7744141,48.7275391c0,21.0878906-4.9248047,37.34375-14.7744141,48.7675781
	C1194.5634766,175.9199219,1181.8710938,181.6318359,1166.3359375,181.6318359z M1166.3359375,169.1396484
	c11.3173828,0,20.1523438-4.8710938,26.5058594-14.6142578c6.3525391-9.7421875,9.5292969-22.6748047,9.5292969-38.7978516
	c0-16.0683594-3.1767578-28.9882813-9.5292969-38.7578125c-6.3535156-9.7695313-15.1884766-14.6542969-26.5058594-14.6542969
	c-11.2646484,0-20.0869141,4.8847656-26.4658203,14.6542969c-6.3798828,9.7695313-9.5693359,22.6894531-9.5693359,38.7578125
	c0,16.1230469,3.1894531,29.0556641,9.5693359,38.7978516
	C1146.2490234,164.2685547,1155.0712891,169.1396484,1166.3359375,169.1396484z"/>
<path d="M1312.3183594,151.1220703h14.9746094v0.8007813c0,4.9121094-1.6953125,9.9033203-5.0849609,14.9746094
	c-3.390625,5.0722656-7.9951172,8.7958984-13.8134766,11.1708984c-5.8193359,2.375-12.6523438,3.5634766-20.5,3.5634766
	c-15.8027344,0-28.7216797-5.4980469-38.7578125-16.4960938c-10.0371094-10.9970703-15.0546875-27.4667969-15.0546875-49.4082031
	c0-21.8339844,4.9912109-38.2773438,14.9746094-49.328125c9.9824219-11.0507813,22.9550781-16.5761719,38.9179688-16.5761719
	c7.7939453,0,14.6005859,1.1884766,20.4199219,3.5634766c5.8183594,2.3759766,10.4228516,6.1396484,13.8134766,11.2910156
	c3.3896484,5.1523438,5.0849609,10.1035156,5.0849609,14.8544922v0.8007813h-14.9746094v-0.8007813
	c0-3.0429688-0.9482422-5.9658203-2.8427734-8.7685547c-1.8955078-2.8027344-4.6181641-4.9111328-8.1679688-6.3261719
	c-3.5507813-1.4140625-7.8076172-2.1220703-12.7724609-2.1220703c-12.7060547,0-22.1689453,5.0185547-28.3876953,15.0546875
	c-6.2197266,10.0371094-9.3291016,22.8222656-9.3291016,38.3574219c0,15.6953125,3.1230469,28.5351563,9.3691406,38.5175781
	c6.2460938,9.9833984,15.6679688,14.9746094,28.2675781,14.9746094c8.6484375,0,14.7871094-1.7880859,18.4179688-5.3652344
	c3.6298828-3.5761719,5.4453125-7.5537109,5.4453125-11.9316406V151.1220703z"/>
<path d="M1342.1875,149.9208984h16.1757813v0.8007813c0,6.8867188,2.4287109,11.6787109,7.2871094,14.3740234
	c4.8574219,2.6962891,11.3173828,4.0439453,19.3789063,4.0439453c7.046875,0,12.9589844-2.0546875,17.7373047-6.1660156
	c4.7773438-4.1103516,7.1669922-9.5292969,7.1669922-16.2558594c0-5.4453125-2.0556641-9.8896484-6.1660156-13.3330078
	c-4.1113281-3.4433594-10.3574219-6.8730469-18.7382813-10.2900391l-6.4863281-2.6425781
	c-8.8085938-3.6298828-15.3886719-7.2197266-19.7392578-10.7705078c-4.3515625-3.5498047-7.5947266-7.4873047-9.7294922-11.8115234
	c-2.1357422-4.3242188-3.203125-9.1552734-3.203125-14.4941406c0-9.3955078,3.3232422-17.3232422,9.9697266-23.7832031
	c6.6464844-6.4589844,17.0429688-9.6894531,31.1904297-9.6894531c12.9726563,0,22.1015625,2.4023438,27.3867188,7.2070313
	s7.9277344,10.4101563,7.9277344,16.8164063v0.8007813h-16.1757813v-0.8007813c0-2.0283203-0.8144531-4.0302734-2.4423828-6.0058594
	c-1.6289063-1.9746094-4.0712891-3.4033203-7.3271484-4.2841797c-3.2568359-0.8808594-6.8339844-1.3212891-10.7304688-1.3212891
	c-7.9550781,0-13.8408203,1.9892578-17.6572266,5.9658203c-3.8173828,3.9775391-5.7255859,8.5019531-5.7255859,13.5732422
	c0,3.4169922,0.9072266,6.6337891,2.7226563,9.6494141c1.8144531,3.0166016,4.3105469,5.5126953,7.4873047,7.4873047
	c3.1757813,1.9755859,8.5283203,4.6181641,16.0556641,7.9277344l7.6074219,3.2832031
	c12.171875,5.2851563,20.2998047,10.8378906,24.3837891,16.65625c4.0839844,5.8193359,6.1259766,12.0917969,6.1259766,18.8183594
	c0,6.2460938-1.6552734,12.2919922-4.9648438,18.1376953c-3.3105469,5.8457031-7.9013672,10.2773438-13.7734375,13.2929688
	c-5.8730469,3.015625-13.6933594,4.5244141-23.4628906,4.5244141c-9.2890625,0-17.0439453-1.1083984-23.2626953-3.3232422
	c-6.2197266-2.2148438-10.9443359-5.8583984-14.1738281-10.9306641c-3.2304688-5.0712891-4.8447266-10.6230469-4.8447266-16.65625
	V149.9208984z"/>
<path d="M964.2237549,64.9705048v2.315239h-48.5820313V18.7037354h2.3152466c2.4291382,0,4.7443848,0.9488678,6.4523315,2.6568279
	l37.1576538,37.1956024C963.2749023,60.2641258,964.2237549,62.579361,964.2237549,64.9705048z"/>
<g>
	<g>
		<path d="M912.6054077,79.4312744c-5.0100098,0-9.1091309-4.0991211-9.1091309-9.1091309V18.7037354H827.586853
			c-5.0479736,0-9.1091309,4.0611572-9.1091309,9.1091309v176.1098022c0,5.0479736,4.0611572,9.1090698,9.1091309,9.1090698
			h127.52771c5.0480957,0,9.1091309-4.0610962,9.1091309-9.1090698V79.4312744H912.6054077z M927.7872925,159.8952026
			c0,2.5050049-2.0495605,4.5545654-4.5545654,4.5545654h-63.763916c-2.5050049,0-4.5545654-2.0495605-4.5545654-4.5545654
			v-3.036377c0-2.5050049,2.0495605-4.5545654,4.5545654-4.5545654h63.763916c2.5050049,0,4.5545654,2.0495605,4.5545654,4.5545654
			V159.8952026z M927.7872925,135.604187c0,2.5050049-2.0495605,4.5545654-4.5545654,4.5545654h-63.763916
			c-2.5050049,0-4.5545654-2.0495605-4.5545654-4.5545654v-3.036377c0-2.5050049,2.0495605-4.5545654,4.5545654-4.5545654h63.763916
			c2.5050049,0,4.5545654,2.0495605,4.5545654,4.5545654V135.604187z M927.7872925,111.3131714
			c0,2.5050049-2.0495605,4.5545654-4.5545654,4.5545654h-63.763916c-2.5050049,0-4.5545654-2.0495605-4.5545654-4.5545654
			v-3.036377c0-2.5050049,2.0495605-4.5545654,4.5545654-4.5545654h63.763916c2.5050049,0,4.5545654,2.0495605,4.5545654,4.5545654
			V111.3131714z"/>
	</g>
</g>
</svg>
