<svg id="Layer_1" data-name="Layer 1" xmlns="http://www.w3.org/2000/svg" xmlns:xlink="http://www.w3.org/1999/xlink" viewBox="0 0 774.7 231.74"><defs><style>.cls-1,.cls-5{fill:none;}.cls-2{clip-path:url(#clip-path);}.cls-3{fill:#063e72;}.cls-4{fill:#fff;}.cls-5{stroke:#fff;stroke-linecap:round;stroke-linejoin:round;stroke-width:7px;}</style><clipPath id="clip-path"><rect class="cls-1" width="774.7" height="231.74"/></clipPath></defs><title>Artboard 1</title><g class="cls-2"><path class="cls-3" d="M62.27,1H712.43c17.56,0,26.48,0,36,3a37.34,37.34,0,0,1,22.3,22.31c3,9.47,3,18.39,3,36.23V169.47c0,17.56,0,26.48-3,36a37.32,37.32,0,0,1-22.3,22.3c-9.48,3-18.4,3-36.23,3H62.27c-17.57,0-26.49,0-36-3A37.34,37.34,0,0,1,4,205.43C1,196,1,187,1,169.2V62.27c0-17.57,0-26.49,3-36A37.35,37.35,0,0,1,26.31,4C35.78,1,44.7,1,62.54,1Z"/></g><path class="cls-4" d="M279.8,177.87h-15L315.76,53.59H332.1l47,124.28H361.64l-12.89-34.2H293.9Zm19-46.61H344L322.17,73.53Z"/><path class="cls-4" d="M409.53,177.87H393.36V53.59h16.17Z"/><path class="cls-4" d="M449.25,177.87H433.07V53.59h38.44q14.17,0,21.3,4.08A29.18,29.18,0,0,1,504.1,69.48a34.79,34.79,0,0,1,4.17,16.78,35.72,35.72,0,0,1-2.81,14,40,40,0,0,1-7.88,12.09q-5.08,5.42-15.74,9.65a28.06,28.06,0,0,1,6,4.25,40.7,40.7,0,0,1,4.88,6.48q2.88,4.49,5,8.41l19.78,36.76h-18.5L481.84,145.2a73,73,0,0,0-16.25-20.74H449.25Zm0-65.83H465q10,0,15.17-3.08a21.76,21.76,0,0,0,8.21-9,27,27,0,0,0,3-12.61,22.26,22.26,0,0,0-2.4-10.45A20.88,20.88,0,0,0,482,69.2q-4.63-3.12-15.77-3.12h-17Z"/><path class="cls-4" d="M529.41,149.92h16.17v.8q0,10.34,7.29,14.38t19.38,4q10.57,0,17.74-6.17t7.16-16.25A16.6,16.6,0,0,0,591,133.38q-6.16-5.16-18.74-10.29l-6.49-2.64Q552.56,115,546,109.68a35.91,35.91,0,0,1-9.73-11.81,32.35,32.35,0,0,1-3.2-14.49,31.91,31.91,0,0,1,10-23.79q10-9.69,31.19-9.69,19.46,0,27.39,7.21t7.93,16.82v.8H593.39v-.8a9.42,9.42,0,0,0-2.44-6,13.88,13.88,0,0,0-7.33-4.28,41.07,41.07,0,0,0-10.73-1.32q-11.92,0-17.66,6a19.1,19.1,0,0,0-5.72,13.57,18.43,18.43,0,0,0,2.72,9.65A22.17,22.17,0,0,0,559.72,99a140.45,140.45,0,0,0,16,7.93l7.61,3.28q18.25,7.93,24.38,16.66a32.09,32.09,0,0,1,6.13,18.82,36.31,36.31,0,0,1-5,18.13,32.77,32.77,0,0,1-13.78,13.3q-8.8,4.51-23.46,4.52-13.94,0-23.26-3.32a26.92,26.92,0,0,1-14.18-10.93,30.41,30.41,0,0,1-4.84-16.66Z"/><path class="cls-4" d="M628.79,149.92H645v.8q0,10.34,7.29,14.38t19.38,4q10.56,0,17.73-6.17t7.17-16.25a16.6,16.6,0,0,0-6.16-13.34q-6.18-5.16-18.74-10.29l-6.49-2.64Q651.93,115,645.4,109.68a35.91,35.91,0,0,1-9.73-11.81,32.35,32.35,0,0,1-3.2-14.49,31.87,31.87,0,0,1,10-23.79q10-9.69,31.19-9.69,19.46,0,27.39,7.21t7.92,16.82v.8H692.77v-.8a9.48,9.48,0,0,0-2.44-6A13.92,13.92,0,0,0,683,63.64a41.12,41.12,0,0,0-10.73-1.32q-11.94,0-17.66,6a19.07,19.07,0,0,0-5.73,13.57,18.34,18.34,0,0,0,2.73,9.65A22.23,22.23,0,0,0,659.09,99a140.81,140.81,0,0,0,16.06,7.93l7.61,3.28q18.25,7.93,24.38,16.66a32.09,32.09,0,0,1,6.13,18.82,36.32,36.32,0,0,1-5,18.13,32.75,32.75,0,0,1-13.77,13.3q-8.81,4.51-23.46,4.52-13.94,0-23.27-3.32a26.89,26.89,0,0,1-14.17-10.93,30.41,30.41,0,0,1-4.84-16.66Z"/><line class="cls-5" x1="79.23" y1="136.51" x2="100.4" y2="157.67"/><line class="cls-5" x1="100.4" y1="136.51" x2="79.23" y2="157.67"/><path class="cls-4" d="M220,115.87,237,86.4a3.48,3.48,0,0,0,0-3.5L219,51.67a3.51,3.51,0,0,0-3-1.75H182l-17-29.47a3.5,3.5,0,0,0-3-1.75h-36a3.51,3.51,0,0,0-3,1.75l-17,29.47h-34a3.5,3.5,0,0,0-3,1.75l-18,31.23a3.53,3.53,0,0,0,0,3.5l17,29.47-17,29.47a3.53,3.53,0,0,0,0,3.5l18,31.22a3.5,3.5,0,0,0,3,1.75h33.95l17,29.47a3.51,3.51,0,0,0,3,1.75h36.05a3.5,3.5,0,0,0,3-1.75l17-29.47H216a3.51,3.51,0,0,0,3-1.75l18-31.22a3.48,3.48,0,0,0,0-3.5ZM230,84.65l-16,27.72H182L166,84.65l16-27.73h32ZM127.89,143.59l-16-27.72,16-27.72h32l16,27.72-16,27.72Zm0-117.89h32l16,27.72-16,27.73h-32l-16-27.73ZM73.81,56.92h32l16,27.73-16,27.72h-32l-16-27.72Zm-16,90.17,16-27.72h32l16,27.65-16,27.79H73.81Zm102,58.94h-32l-16-27.65,16-27.79h31.92l16,27.72ZM214,174.81H182l-16-27.72,16-27.72h32l16,27.72Z"/><path class="cls-4" d="M130.83,66.79a3.51,3.51,0,0,0,4.95,0l8.11-8.11L152,66.79a3.5,3.5,0,0,0,4.95-5l-8.11-8.11L157,45.62A3.5,3.5,0,1,0,152,40.67l-8.11,8.11-8.11-8.11a3.5,3.5,0,1,0-4.95,4.95l8.11,8.11-8.11,8.11A3.49,3.49,0,0,0,130.83,66.79Z"/><path class="cls-4" d="M148.84,115.87l8.11-8.11a3.5,3.5,0,1,0-4.95-5l-8.11,8.11-8.11-8.11a3.5,3.5,0,1,0-4.95,5l8.11,8.11L130.83,124a3.5,3.5,0,0,0,4.95,5l8.11-8.11,8.11,8.11a3.5,3.5,0,1,0,4.95-5Z"/><path class="cls-4" d="M157,165.25a3.51,3.51,0,0,0-4.95,0l-8.11,8.11-8.11-8.11a3.5,3.5,0,0,0-4.95,4.95l8.11,8.11-8.11,8.11a3.5,3.5,0,0,0,4.95,5l8.11-8.11,8.11,8.11a3.47,3.47,0,0,0,2.47,1,3.5,3.5,0,0,0,2.48-6l-8.11-8.11L157,170.2A3.51,3.51,0,0,0,157,165.25Z"/><path class="cls-4" d="M211,134a3.49,3.49,0,0,0-5,0L198,142.14,189.85,134A3.5,3.5,0,0,0,184.9,139l8.11,8.11-8.11,8.11a3.5,3.5,0,0,0,4.95,5L198,152l8.11,8.11a3.5,3.5,0,1,0,5-5l-8.11-8.11L211,139A3.49,3.49,0,0,0,211,134Z"/><path class="cls-4" d="M193,84.65l-8.11,8.1a3.51,3.51,0,0,0,2.48,6,3.46,3.46,0,0,0,2.47-1L198,89.6l8.11,8.1a3.49,3.49,0,0,0,5,0,3.49,3.49,0,0,0,0-5l-8.11-8.1L211,76.54a3.5,3.5,0,1,0-5-5L198,79.7l-8.11-8.11a3.5,3.5,0,1,0-4.95,5Z"/><path class="cls-4" d="M76.75,97.7a3.48,3.48,0,0,0,2.48,1,3.44,3.44,0,0,0,2.47-1l8.11-8.1,8.11,8.1a3.5,3.5,0,0,0,5-5l-8.11-8.1,8.11-8.11a3.5,3.5,0,1,0-5-5L89.81,79.7,81.7,71.59a3.5,3.5,0,1,0-5,5l8.11,8.11-8.11,8.1A3.51,3.51,0,0,0,76.75,97.7Z"/></svg>
